<svg width="50" height="62" viewBox="0 0 50 62" fill="none" xmlns="http://www.w3.org/2000/svg">
	<path d="M2.199 11.648C1.26931 12.1362 0.679498 13.1089 0.718498 14.1597C0.999748 22.6792 2.9685 31.1797 6.4685 38.8897C11.1599 49.2417 17.7695 56.5377 23.2185 61.2487C24.238 62.1393 25.7693 62.1393 26.7888 61.2487C32.238 56.5299 38.8478 49.2287 43.5388 38.8897C47.0388 31.1788 49.0076 22.6787 49.2888 14.1597C49.32 13.1089 48.738 12.1402 47.8083 11.648L26.2693 0.397953C25.4685 -0.023927 24.5193 -0.023927 23.7185 0.397953L2.199 11.648ZM37.75 19.7105C38.2891 20.2222 38.3086 21.0699 37.8008 21.6089L23.8908 36.2689C23.6408 36.5384 23.2814 36.6907 22.922 36.6907H22.8712C22.4923 36.679 22.1212 36.4993 21.883 36.2024L15.0236 27.8509C14.5548 27.2805 14.6329 26.429 15.215 25.9603C15.7853 25.4915 16.6369 25.5696 17.1056 26.1517L23.004 33.3236L35.875 19.7726C36.3711 19.2296 37.2188 19.1987 37.75 19.7105Z" fill="black" />
</svg>
