<svg width="30" height="30" viewBox="0 0 40 40" fill="none" xmlns="http://www.w3.org/2000/svg">
	<circle cx="20" cy="20" r="20" fill="#22A079" />
	<path fill-rule="evenodd" clip-rule="evenodd" d="M22.1987 15.3047V17.9637L22.2016 17.9665C27.1287 18.1939 30.8327 19.1752 30.8327 20.3464C30.8327 21.5205 27.1287 22.4989 22.2016 22.7263V31.25H17.8114V22.7263C12.8786 22.496 9.16602 21.5176 9.16602 20.3435C9.16602 19.1694 12.8757 18.191 17.8114 17.9637V15.3047H11.7387V11.25H28.2715V15.3047H22.1987ZM22.1987 21.9955V21.9984V22.0012C26.5487 21.8055 29.7961 21.0458 29.7961 20.1365C29.7961 19.2271 26.5516 18.4674 22.1987 18.2717V21.2415C22.0724 21.253 21.3947 21.3106 20.0395 21.3106C18.9111 21.3106 18.0928 21.2617 17.8085 21.2415V18.2689C13.4499 18.4617 10.1939 19.2243 10.1939 20.1336C10.1939 21.0458 13.447 21.8055 17.8085 21.9984V21.9955C18.0899 22.0099 18.8852 22.0415 20.0194 22.0415C21.4378 22.0415 22.0752 22.0041 22.1987 21.9955Z" fill="white" />
</svg>
